<svg width="21" height="21" viewBox="0 0 21 21" fill="none" xmlns="http://www.w3.org/2000/svg">
<path d="M19.8983 18.6019L14.696 13.3996C15.8665 11.9388 16.503 10.1219 16.5 8.25C16.5 3.69371 12.8065 0 8.25 0C3.69371 0 0 3.69371 0 8.25C0 12.8063 3.69371 16.5 8.25 16.5C10.1979 16.5 11.9882 15.8249 13.3996 14.6958L18.6019 19.8981C18.6869 19.9833 18.7879 20.0509 18.8992 20.097C19.0104 20.1431 19.1296 20.1668 19.25 20.1667C19.4313 20.1667 19.6085 20.1129 19.7593 20.0122C19.91 19.9115 20.0275 19.7684 20.0969 19.6009C20.1663 19.4334 20.1845 19.2491 20.1491 19.0713C20.1138 18.8935 20.0265 18.7301 19.8983 18.6019ZM8.25 14.6667C4.70617 14.6667 1.83333 11.7938 1.83333 8.25C1.83333 4.70617 4.70617 1.83333 8.25 1.83333C11.7941 1.83333 14.6667 4.70617 14.6667 8.25C14.6667 11.7938 11.7941 14.6667 8.25 14.6667Z" fill="gray"/>
</svg>
