<svg width="15" height="15" viewBox="0 0 15 15" fill="none" xmlns="http://www.w3.org/2000/svg">
<path d="M14.4715 13.5287L10.688 9.74517C11.5393 8.68273 12.0022 7.36141 12 6C12 2.68633 9.31383 0 6 0C2.68633 0 0 2.68633 0 6C0 9.31367 2.68633 12 6 12C7.41667 12 8.71867 11.509 9.74517 10.6878L13.5287 14.4713C13.5905 14.5333 13.664 14.5825 13.7448 14.616C13.8257 14.6495 13.9124 14.6668 14 14.6667C14.1318 14.6667 14.2607 14.6276 14.3704 14.5543C14.48 14.4811 14.5655 14.377 14.6159 14.2552C14.6664 14.1334 14.6796 13.9993 14.6539 13.87C14.6282 13.7407 14.5647 13.6219 14.4715 13.5287ZM6 10.6667C3.42267 10.6667 1.33333 8.57733 1.33333 6C1.33333 3.42267 3.42267 1.33333 6 1.33333C8.5775 1.33333 10.6667 3.42267 10.6667 6C10.6667 8.57733 8.5775 10.6667 6 10.6667Z" fill="url(#paint0_linear_7094_26186)"/>
<defs>
<linearGradient id="paint0_linear_7094_26186" x1="0" y1="7.33333" x2="14.6667" y2="7.33333" gradientUnits="userSpaceOnUse">
<stop stop-color="#E95A57"/>
<stop offset="0.495" stop-color="#E53BCF"/>
<stop offset="1" stop-color="#3E8EFF"/>
</linearGradient>
</defs>
</svg>
