<svg width="40" height="40" viewBox="0 0 40 40" fill="none" xmlns="http://www.w3.org/2000/svg">
<path d="M20.0941 0.380859L23.7352 2.77451L28.0352 2.06878L30.3879 5.73647L34.6031 6.84069L35.2607 11.1482L38.6624 13.8715L37.511 18.0741L39.511 21.9455L36.7498 25.3164L37.0022 29.6666L33.1087 31.6231L31.5699 35.6998L27.2172 35.9035L24.1533 39.0018L20.0941 37.4175L16.0349 39.0018L12.971 35.9035L8.61831 35.6998L7.07953 31.6231L3.18601 29.6666L3.4384 25.3164L0.677265 21.9455L2.6772 18.0741L1.52588 13.8715L4.92754 11.1482L5.5851 6.84069L9.80032 5.73647L12.1531 2.06878L16.453 2.77451L20.0941 0.380859Z" fill="#00B92D"/>
<path d="M28.4613 16.1499L18.1912 26.0727L11.4258 20.0628L13.3235 17.9269L18.1096 22.1785L26.4762 14.0952L28.4613 16.1499Z" fill="white"/>
</svg>
