<svg width="160" height="37" viewBox="0 0 160 37" fill="none" xmlns="http://www.w3.org/2000/svg">
<path fill-rule="evenodd" clip-rule="evenodd" d="M16.8554 2.72234C16.8554 1.15801 18.0062 0 19.5492 0C21.0917 0 22.2425 1.16309 22.2425 2.72234C22.2425 4.28159 21.127 5.44468 19.5492 5.44468C17.9709 5.44468 16.8554 4.24604 16.8554 2.72234ZM17.3933 27.2437L17.3933 9.08124H21.7051L21.7051 27.2437H17.3933ZM7.90527 27.6043C3.4123 27.6043 0 25.2781 0 21.2454H4.49297C4.49297 23.2059 5.96527 24.1862 7.90527 24.1862C9.70393 24.1862 10.7797 23.531 10.7797 22.1901C10.7797 20.5775 8.94471 20.2143 6.81233 19.7921C3.8535 19.2063 0.321452 18.5072 0.321452 14.2009C0.321452 10.8233 3.37696 8.71555 7.36739 8.71555C11.6793 8.71555 14.9154 11.4023 14.9154 14.856H10.4229C10.4229 13.3323 9.1312 12.1693 7.36739 12.1693C5.74933 12.1693 4.67357 12.86 4.67357 14.0231C4.67357 15.439 6.41383 15.7894 8.48241 16.2059C11.5109 16.8156 15.2422 17.5669 15.2422 22.0123C15.2422 25.461 12.1165 27.6043 7.91018 27.6043H7.90527ZM28.5346 17.2533C28.5346 14.2009 29.9721 12.5299 32.3086 12.5299V12.5248C34.6457 12.5248 36.0826 14.1958 36.0826 17.2483L36.0826 27.2386H40.3945L40.3945 16.3797C40.3945 11.2601 37.5201 8.71555 33.7108 8.71555C31.4797 8.71555 29.6502 9.77198 28.5346 11.6969L28.5346 9.08124L24.2228 9.08124L24.2228 27.2437H28.5346V17.2533ZM42.1937 18.1625C42.1937 12.6061 45.8975 8.72063 50.8174 8.72063C52.9733 8.72063 54.878 9.70087 56.2095 11.3719V9.08124L60.5213 9.08124L60.5213 27.2437C60.5213 32.8001 56.4961 36.6856 51.5359 36.6856C46.5757 36.6856 43.1987 33.4502 42.5504 28.6963H46.8977C47.2947 31.0936 49.0536 32.6935 51.5359 32.6935C54.481 32.6935 56.2095 30.4435 56.2095 27.2437V24.9531C54.878 26.6241 52.9733 27.6043 50.8174 27.6043C45.8926 27.6043 42.1937 23.7189 42.1937 18.1625ZM56.2095 18.1625C56.2095 14.8916 54.1242 12.7127 51.3602 12.7127C48.5962 12.7127 46.5104 14.8916 46.5104 18.1625C46.5104 21.4333 48.5962 23.6122 51.3602 23.6122C54.1242 23.6122 56.2095 21.4333 56.2095 18.1625ZM74.5376 19.0665C74.5376 22.119 73.1404 23.79 70.8741 23.79C68.5724 23.79 67.1702 22.119 67.1702 19.0665V9.07615H62.8584V19.935C62.8584 25.0547 65.6979 27.5992 69.4719 27.5992C71.6279 27.5992 73.457 26.5479 74.5376 24.6585V27.2386L78.8495 27.2386V9.07615H74.5376V19.0665ZM81.3671 27.2437V0L85.679 0V27.2437H81.3671ZM101.675 9.08124V11.3719C100.343 9.70087 98.4384 8.72063 96.2825 8.72063C91.3626 8.72063 87.6588 12.6061 87.6588 18.1625C87.6588 23.7189 91.3577 27.6043 96.2825 27.6043C98.4384 27.6043 100.343 26.6241 101.675 24.9531V27.2437H105.986V9.08124H101.675ZM96.8253 23.6122C94.0564 23.6122 91.9706 21.4333 91.9706 18.1625C91.9706 14.8916 94.0564 12.7127 96.8253 12.7127C99.5942 12.7127 101.68 14.8916 101.68 18.1625C101.68 21.4333 99.5942 23.6122 96.8253 23.6122ZM112.816 12.022C114.108 9.87863 116.229 8.71555 118.852 8.71555C119.174 8.71555 119.536 8.71555 119.751 8.78665V13.5457C119.249 13.3628 118.601 13.2562 117.882 13.2562C114.681 13.2562 112.816 14.9272 112.816 17.9796V27.2437H108.505V9.08124L112.816 9.08124V12.022ZM124.063 0C122.52 0 121.37 1.15801 121.37 2.72234C121.37 4.24604 122.485 5.44468 124.063 5.44468C125.641 5.44468 126.757 4.28159 126.757 2.72234C126.757 1.16309 125.606 0 124.063 0ZM121.907 9.08124V27.2437H126.219V9.08124L121.907 9.08124ZM138.26 23.6122C138.873 23.6122 139.627 23.5056 140.235 23.2872V27.1726C139.587 27.391 138.436 27.6094 137.396 27.6094C133.838 27.6094 131.25 26.1923 131.25 21.3267V12.9006H128.375V9.08631H131.25V3.63148L135.562 3.63148V9.08123H140.235V12.8956H135.562V21.0321C135.562 22.8097 136.386 23.6122 138.255 23.6122H138.26ZM141.567 36.2843C142.249 36.5024 143.292 36.685 144.331 36.6855H144.326H144.336H144.331C148.89 36.6831 150.834 33.5958 152.341 29.128L159.136 9.07615H154.824L150.296 23.0586L145.803 9.07615L141.491 9.07615L148.251 29.0924C147.21 31.637 145.949 32.8357 143.939 32.8357C143.075 32.8357 142.25 32.6528 141.567 32.4344V36.2843Z" fill="white"/>
</svg>
